<?xml version="1.0" encoding="UTF-8" standalone="no"?>
<svg
   width="62"
   height="62"
   viewBox="3 0 62 62"
   fill="none"
   version="1.1"
   id="svg6"
   xmlns="http://www.w3.org/2000/svg"
   xmlns:svg="http://www.w3.org/2000/svg">
  <defs
     id="defs6" />
  <path
     d="m 47.488981,15.268656 c -1.662072,0.779315 -4.472844,2.234841 -7.275035,4.048687 -1.049099,0.679148 2.382777,-4.912585 3.162091,-6.285899 0.192768,-0.339687 -0.475765,1.138538 -0.737079,1.427294 -0.853848,0.943286 1.710517,-3.609737 2.553297,-4.589499 1.23001,-1.4297782 -1.404596,4.715526 -1.821638,5.705338 -0.276448,0.655998 1.85371,-1.791147 5.036241,-5.861065 1.050793,-1.3438403 1.013414,-1.1776111 0.315407,-0.16815 -0.698006,1.009349 -2.040831,2.868706 -2.4485,3.387496 -0.243134,0.309309 1.675284,-2.400055 3.006363,-4.1473866 0.443129,-0.5816911 0.246522,-0.6627731 0.0376,-0.6635643 -0.469892,-0.00166 -0.939785,0.1557275 -1.278681,0.1565187 -0.275995,6.768e-4 -0.185427,-0.5203826 -0.184637,-0.651842 0.0048,-0.8009518 -0.885015,1.3787577 -1.120582,1.8999202 -0.08786,0.194348 0.126027,0.314616 0.309083,0.316198 0.839957,0.0071 1.381898,-0.8842248 2.112766,-1.5877656 0.174812,-0.1681495 0.261428,-0.3387838 0.392085,-0.496103 0.130658,-0.157286 0.285595,-0.3122222 0.004,0.1502058 C 49.270007,8.3715909 48.54693,9.456149 48.329431,9.498385 47.352719,9.688103 48.844382,7.2885343 49.052508,6.9763116 49.502751,6.300913 50.562691,5.8815782 51.165274,5.5912635 52.219907,5.0830996 50.77556,8.5327392 50.905427,9.758909 c 0.234212,2.210561 0.183169,3.878957 0.313036,5.400207 0.164649,1.927339 0.07984,2.870286 0.0524,7.21315 -0.01333,2.126204 0.233986,4.108313 0.261428,6.476974 0.01197,1.04029 -0.390505,1.753543 -0.885016,2.380405 -0.242004,0.306599 -0.444483,0.626749 -0.781799,0.835666 -1.876972,1.162817 -5.033869,0.05251 -7.167753,0.02823 -0.431949,-0.005 -0.476555,-0.232405 -0.529067,-0.415574 -0.230033,-0.803368 -0.417042,-1.538415 -0.496091,-2.295145 -0.09565,-0.915957 -0.233987,-2.060254 -0.313036,-4.245858 -0.0419,-1.159317 -0.233986,-2.196559 -0.442903,-2.823308 -0.104006,-0.312245 -0.208916,-0.626863 -0.312923,-0.680842 -1.892444,-0.981795 0.04924,6.090309 0.181475,7.50902 0.02586,0.210498 0.07747,0.365435 0.259056,0.419414 0.181475,0.05398 0.49135,0.0024 0.810709,-0.05082"
     stroke="#98d2eb"
     stroke-width="2.25856"
     stroke-linecap="round"
     id="path1" />
  <path
     d="m 42.793782,22.15488 c -0.103334,0.311455 -0.416252,1.349036 -0.495302,2.344381 -0.01672,0.21061 -0.07747,0.416365 -0.155727,0.341946 -0.342284,-0.32512 -0.08142,-2.719189 0.283223,-5.511215 0.115977,-0.887613 0.261428,-0.674518 0.340364,-0.335735 0.527712,2.262056 0.08063,5.238947 -0.335621,6.261734 -0.09102,0.223596 -0.363063,0.338783 -0.495301,0.237825 -0.3957,-0.301969 0.330991,-2.1777 1.424132,-4.573802 1.465125,-3.211214 3.443846,-4.342976 4.361723,-4.608244 0.829455,-0.239632 0.03049,2.548668 -0.979649,5.091124 -0.717091,1.804586 -2.198139,4.504916 -2.864865,5.55345 -0.349059,0.549168 0.524324,-3.156671 1.907802,-6.787525 0.08549,-0.224388 -0.791962,3.320981 -2.043202,6.684309 -0.585418,1.573536 -0.842667,2.029764 -0.895179,2.006275 -1.701935,-0.762037 1.606511,-5.480724 2.734886,-6.9393 0.488638,-0.631605 1.33187,1.375687 1.670766,2.780282 0.698911,2.897389 -0.385874,5.063683 -0.881175,6.055867 -0.146016,0.292483 -0.237148,0.06267 -0.237826,-0.32783 -0.0044,-2.18583 1.349826,-4.351559 2.44771,-5.246738 0.432965,-0.353126 0.941366,0.777733 1.227751,1.532091 0.297903,0.784848 0.289547,1.593185 0.133819,2.295935 -0.151662,0.684117 -0.831826,1.28015 -1.819379,1.827172 -1.185629,0.656675 -2.507224,0.60326 -3.28891,0.629911 -0.317779,0.01084 -0.471925,-0.128286 -0.525905,-0.336525 -0.130092,-0.501399 0.154147,-1.14712 0.439855,-1.745751 0.751534,-1.575342 2.94764,-1.647165 3.286537,-1.570487 0.179668,0.04065 0.183847,0.43816 0.133029,0.752778 -0.227324,1.405611 -2.130835,2.502479 -3.776418,3.2373 -0.704331,0.314391 -1.334242,0.262106 -1.698886,0.0047 -0.82889,-0.585192 -0.316085,-1.982108 -0.160357,-2.554878 0.140595,-0.517435 0.625168,-0.785638 1.119001,-0.968017 0.620764,-0.229244 1.382688,-0.183846 2.085324,-0.132239 0.667517,0.04913 1.125326,0.416365 1.334242,0.754358 0.100391,0.162391 0.0024,0.389714 -0.127608,0.599421 -0.691908,1.117194 -4.333491,1.565067 -6.648172,1.43983 -0.320376,-0.01728 -0.367806,-0.491462 -0.266058,-0.909296 0.506481,-2.080468 3.275584,-2.921893 6.143498,-3.629273 2.078323,-0.512692 3.558129,-0.237938 3.819444,0.09937 0.892694,1.151864 -2.023554,3.149557 -3.878167,4.641107 -0.773103,0.62178 -1.646374,0.760568 -2.297403,0.812967 -0.288643,0.02327 -0.496091,-0.05082 -0.680051,-0.180684 -0.961016,-0.678922 -0.08526,-4.386794 0.801336,-6.46602 0.792866,-1.859356 2.714558,-0.969485 3.209069,-0.814549 0.269672,0.08447 0.442903,0.464811 0.497673,0.779429 0.229356,1.317076 -2.023554,2.39915 -3.64497,3.08067 -0.307277,0.12919 -0.522744,0.157309 -0.629121,0.08063 -0.822454,-0.592645 1.189468,-3.197325 2.964919,-5.054987 0.660176,-0.690779 1.567437,-0.762263 2.400054,-0.736402 0.835779,0.02597 1.568116,0.285594 2.089277,0.649448 0.243585,0.170182 0.314617,0.467182 0.290337,0.755148 -0.0524,0.621893 -0.597049,1.175352 -1.504762,1.695724 -1.527801,0.875867 -3.366378,0.734821 -4.53789,0.579094 -1.039727,-0.138224 -1.701935,-0.625282 -2.040719,-1.067394 -0.320602,-0.418172 -0.18554,-1.018044 -0.02981,-1.538416 0.259056,-0.520371 0.676888,-1.044695 1.558855,-1.771611 0.623587,-0.468763 1.60493,-1.140119 2.928895,-2.144837"
     stroke="#98d2eb"
     stroke-width="2.25856"
     stroke-linecap="round"
     id="path2" />
  <path
     d="m 49.05416,18.085527 c 0,1.139441 -0.103333,3.540174 -0.182378,4.509659 -0.02824,0.346462 -0.233874,0.6534 -0.49372,0.888176 -0.588693,0.532003 -1.770031,0.236359 -2.734096,0.15889 -1.543271,-0.123994 -1.96099,-3.666088 -2.119089,-4.720946 -0.126141,-0.84199 -1.25045,1.353778 -1.640954,1.640163 -0.182266,0.133706 -0.338784,0.234777 0.123656,0.184637 2.850523,-0.308632 3.443846,-0.729288 4.537777,-0.989812 1.183257,-0.281868 1.619837,-0.834988 1.907011,-1.068974 0.119026,-0.097 0.02903,-0.285595 -0.100952,-0.442903 -0.292257,-0.353916 -0.704219,-0.523534 -1.068072,-0.575932 -0.20677,-0.02981 -0.467182,0.05093 -0.651819,0.232405 -0.406202,0.399313 -0.394456,1.068975 -0.368597,1.537625 0.02056,0.373 0.595469,0.525114 1.351407,0.860849 2.399152,1.06536 0.552443,4.514288 0.708171,4.671596 0.492816,0.497786 1.041533,-0.885015 1.435086,-1.405386 0.411961,-0.54465 0.02586,-1.407758 0.0533,-3.515103 0.01807,-1.393416 -0.233986,-2.431223 -0.313035,-3.317819 -0.152566,-1.711195 -0.233987,-4.537891 -0.338784,-5.505004 -0.09769,-0.900486 -0.937527,1.637001 -1.615207,2.44692 -0.511449,0.611278 -1.043791,1.224588 -1.306799,1.827171 -0.292597,0.670565 1.768562,-0.802916 2.735676,-1.742702 0.200898,-0.195139 0.287965,-0.365434 0.263799,-0.367805 -0.179217,0.152678 -0.442226,0.467182 -0.650352,0.831035 -0.104797,0.208917 -0.208125,0.467182 -0.314503,1.202794"
     stroke="#98d2eb"
     stroke-width="2.25856"
     stroke-linecap="round"
     id="path3" />
  <path
     d="m 10.710882,21.841618 c 0.467973,-0.05161 1.19568,-0.156518 2.702814,-0.286384 2.421624,-0.208804 4.285045,0.02495 5.115291,0.103219 2.499656,0.23568 3.547174,0.183168 5.213876,0.0533 0.878917,-0.06855 2.430545,-0.02665 3.15125,0.05082 0.720705,0.07747 0.565768,0.232405 0.43432,0.389714 -0.474409,0.567576 -0.704331,1.25124 -1.199632,1.92971 -0.687278,0.941254 -1.486017,0.992974 -2.138626,1.20189 -0.748373,0.239634 -1.898429,0.313827 -3.076831,0.469554 -1.121825,0.148162 -2.580739,0.260525 -3.885168,0.339574 -1.925193,0.116655 -4.539471,0.02744 -5.479257,-0.07747 -0.394456,-0.04404 -0.679938,-0.364643 -0.940575,-0.624491 -0.280174,-0.279383 -0.210497,-0.989022 -0.133029,-1.666701 0.112589,-0.984505 3.296814,-0.787219 5.575471,-0.657353 1.01285,0.0577 2.785703,0.181589 5.490097,0.416365 1.461512,0.126818 3.117598,0.07973 3.788164,0.105588 0.318456,0.01231 -2.387407,0.54386 -6.089519,1.221539 -2.377695,0.435224 -3.204439,0.577514 -4.246762,0.656563 -0.47441,0.03591 -0.992184,0.130657 -1.487485,0.02732 -0.382035,-0.07962 -0.445275,-0.625958 -0.75752,-0.808337 -0.292257,-0.170634 -0.936623,-0.183846 -1.460156,-0.209707 -1.8654541,-0.09203 4.997958,-0.02744 5.967443,0.05161 1.788438,0.145789 4.824276,0.233986 6.023795,0.313035 0.86672,0.05714 2.083856,0.443695 3.153508,0.521163 0.354368,0.02564 0.29508,0.232405 0.216822,0.389714 -0.160923,0.323311 -0.494511,0.626748 -0.962484,0.887386 -1.252031,0.262106 -2.605809,0.367015 -4.32265,0.496882 -0.984392,0.02654 -2.740306,0.02654 -4.393005,0.02654"
     stroke="#98d2eb"
     stroke-width="2.25856"
     stroke-linecap="round"
     id="path4" />
  <path
     d="m 50.312176,3.0304902 c -3.720519,1.2762647 -6.949351,3.68314 -9.23501,6.8841468 -2.285771,3.201164 -3.5142,7.036418 -3.513522,10.969692 v 9.1895 c 0.003,1.376364 0.551201,2.69536 1.5243,3.668459 0.973211,0.973212 2.292207,1.521251 3.668458,1.524412 h 7.876714 v 23.746796 c 0,0.386891 0.153695,0.757859 0.427206,1.03137 0.273625,0.273623 0.644592,0.427318 1.031482,0.427318 0.384972,-0.0061 0.752439,-0.161712 1.024708,-0.433868 0.272268,-0.272269 0.427883,-0.639849 0.433868,-1.02482 V 3.9348611 C 53.54438,3.549879 53.38878,3.1823442 53.116512,2.9100866 52.844243,2.637829 52.476776,2.4822257 52.091804,2.4762066 c -0.169391,-0.00189 -0.33754,0.02778 -0.495978,0.087519 z M 42.756402,32.349324 c -0.60326,-6.77e-4 -1.181563,-0.240762 -1.608204,-0.667291 -0.426528,-0.426528 -0.6665,-1.004944 -0.66729,-1.608204 v -9.1895 c 0.0021,-3.212683 0.971517,-6.350381 2.782428,-9.004184 1.810797,-2.6538033 4.378888,-4.7007215 7.36978,-5.8740075 V 32.349324 Z"
     fill="#000000"
     id="path5"
     style="stroke-width:1.12928" />
  <path
     d="m 28.753356,2.505342 c -0.38689,0 -0.757858,0.1536835 -1.031482,0.4272284 -0.273511,0.2735564 -0.427206,0.6445694 -0.427206,1.0314261 V 18.49218 H 20.17649 V 3.9639965 c 0,-0.3868567 -0.153694,-0.7578697 -0.427206,-1.0314261 C 19.47566,2.6590255 19.104692,2.505342 18.717802,2.505342 c -0.386891,0 -0.757859,0.1536835 -1.03137,0.4272284 -0.273624,0.2735564 -0.427319,0.6445694 -0.427319,1.0314261 V 18.49218 H 10.140935 V 3.9639965 c 0,-0.3868567 -0.1536941,-0.7578697 -0.4272051,-1.0314261 C 9.4402189,2.6590255 9.0691379,2.505342 8.6822473,2.505342 8.2954696,2.505342 7.9243889,2.6590255 7.6508777,2.9325704 7.3773666,3.2061268 7.2236719,3.5771398 7.2236719,3.9639965 V 22.868132 c 0.00542,1.932646 0.7754751,3.78455 2.142127,5.151088 1.3665401,1.366653 3.2184431,2.136708 5.1510891,2.142128 h 2.742225 v 28.852148 c 0.0061,0.384971 0.161713,0.752438 0.433982,1.024707 0.272269,0.272269 0.639736,0.427883 1.024707,0.433869 0.38689,0 0.757858,-0.153583 1.031482,-0.427206 0.273512,-0.273511 0.427206,-0.644592 0.427206,-1.03137 V 30.161348 h 2.742226 c 1.93434,0 3.789405,-0.768361 5.157074,-2.136142 1.367781,-1.367782 2.136142,-3.222847 2.136142,-5.157074 V 3.9639965 c 0,-0.3868567 -0.153583,-0.7578697 -0.427206,-1.0314261 C 29.511215,2.6590255 29.140247,2.505342 28.753356,2.505342 Z m -1.458688,20.36279 c 0,1.160559 -0.460972,2.273576 -1.281618,3.094221 -0.820759,0.820647 -1.933775,1.281731 -3.094334,1.281731 h -8.401828 c -1.157962,-0.0084 -2.266123,-0.472151 -3.084961,-1.29099 -0.81884,-0.81884 -1.282522,-1.927 -1.290992,-3.084962 v -1.458688 h 17.153733 z"
     fill="#000000"
     id="path6"
     style="stroke-width:1.12928" />
</svg>
