<svg width="54" height="47" viewBox="-4 -4 62 54" fill="none" xmlns="http://www.w3.org/2000/svg">
<path d="M29.0164 20.5359C29.1874 20.5787 29.532 20.6862 30.3267 21.0081C31.7045 21.5662 32.621 22.0471 32.9005 22.0795C33.6524 22.1666 34.3446 21.8547 34.834 21.6377C34.9141 21.6022 34.9742 21.5516 35.018 21.4975C35.0617 21.4434 35.083 21.3793 35.0299 21.3249C34.8862 21.1776 33.669 21.1837 32.0394 21.173C31.1962 21.1674 30.9175 21.0975 30.7662 21.0331C30.7093 21.0088 30.7432 20.9259 30.7863 20.8821C31.0566 20.6078 31.6915 20.5359 32.0594 20.4715C32.3902 20.4135 32.6851 20.3416 33.0203 20.2772C33.3963 20.2049 33.8731 20.1693 34.1325 20.1366C34.2646 20.1199 35.1828 20.0825 36.5424 20.0932C37.176 20.0982 38.141 20.1473 39.4361 20.1366C40.0928 20.1312 40.7138 20.1473 41.4587 20.2328C41.7242 20.2633 41.7119 20.4893 41.7013 20.6094C41.6353 21.3505 41.6899 22.5206 41.7657 22.8985C41.8616 23.3769 41.8415 24.0285 41.8953 24.5933C41.9238 24.8927 41.9276 25.1556 41.96 26.0653C41.9894 26.8891 41.971 28.4499 41.9604 29.2858C41.9442 30.5522 41.8635 31.287 41.8308 31.6002C41.7995 31.8999 41.7119 32.1938 41.6582 32.6139C41.5551 33.4192 41.5824 33.7264 41.518 34.0616C41.4576 34.3757 41.4315 34.6559 41.3563 34.753C41.1621 35.0042 40.1859 34.8508 39.202 34.9046C37.7603 34.9834 36.7037 34.8942 36.4031 34.8618C35.8492 34.8021 35.4296 34.8294 35.0118 34.7971C33.2972 34.6641 32.9481 34.8508 32.5909 34.9046C32.3006 34.9483 31.5697 34.9804 31.0901 35.0341C30.8303 35.0633 30.4867 35.1099 30.0871 35.1637C29.3257 35.2661 28.0772 35.2395 27.1405 35.2932C26.1467 35.3503 25.459 35.369 24.4641 35.4765C23.7101 35.558 23.0171 35.5633 22.2304 35.6171C20.5143 35.7344 20.0375 35.5633 19.5504 35.5096C19.3042 35.4824 19.064 35.4772 18.186 35.4234C17.4156 35.3762 15.9827 35.3483 15.1808 35.3156C14.2499 35.2776 13.8406 35.2395 13.3555 35.2501C13.0185 35.2576 12.2679 35.3042 11.3287 35.2722C11.008 35.2612 11.0094 35.176 11.0628 35.0361C11.3199 34.3631 11.6131 34.1396 11.7753 33.8802C11.9627 33.5807 11.8087 33.1032 11.776 32.7363C11.7496 32.4398 11.5496 32.1964 11.4738 31.8619C11.3899 31.4913 11.398 30.3698 11.3336 29.6055C11.3023 29.2338 11.2257 28.893 11.193 27.6121C11.1805 27.1193 11.0962 26.8202 11.0635 25.2598C11.0509 24.6584 10.9667 24.3161 10.9339 23.9809C10.8866 23.496 10.8371 22.7615 10.7506 22.4263C10.6497 22.0352 10.7283 21.5088 10.7717 21.0881C10.7896 20.9146 10.9226 20.7957 11.0408 20.7092C11.3843 20.458 12.0212 20.8598 12.8924 20.9136C14.5895 21.0183 15.802 20.9459 16.0808 20.9783C17.0907 21.0956 17.3986 20.9246 17.6801 20.8601C18.1663 20.7488 18.9105 20.7523 19.3956 20.7196C19.5156 20.7115 19.6009 20.6875 20.2435 20.6765C20.886 20.6655 22.083 20.6655 22.7424 20.6548C23.8118 20.6374 24.4162 20.5579 24.9551 20.5466C25.0859 20.5573 25.1714 20.5787 25.4079 20.5897C25.6443 20.6007 26.029 20.6007 26.4254 20.6007" stroke="#98D2EB" stroke-width="20" stroke-linecap="round"/>
<path d="M49.5494 12.8281C49.5708 12.6992 49.6142 12.2697 49.5177 11.9329C49.4709 11.7697 48.3712 11.7917 47.032 11.8131C46.6115 11.8198 46.7188 11.8772 47.1266 11.8992C49.0278 12.0019 49.289 11.8565 49.5485 11.9316C49.692 11.9732 49.7865 12.1149 49.862 12.2441C49.9326 12.3651 49.9594 12.5035 49.9918 12.9961C50.0718 14.2129 49.9815 15.1372 49.9491 15.5664C49.8846 16.4206 49.9167 17.1018 49.8843 17.5954C49.8212 18.5572 49.8519 19.2827 49.8195 19.7118C49.7551 20.5661 49.8299 21.2045 49.8623 22.0822C49.8915 22.8739 49.8733 24.3707 49.8626 25.1842C49.8519 25.9978 49.8305 26.0833 49.8195 26.9609C49.8085 27.8386 49.8085 29.5059 49.8406 30.5999C49.8865 32.1665 50.0028 32.7769 50.0349 33.1316C50.1247 34.125 50.2399 34.5038 50.2726 34.8604C50.3231 35.4103 50.3695 36.0156 50.4022 36.3932C50.4682 37.1553 50.4135 38.3682 50.3808 38.7899C50.3348 39.3826 50.2412 40.1611 50.1865 40.4743C50.139 40.7459 50.0896 41.0459 50.0032 41.338C49.8704 41.7865 49.8953 42.4061 49.8305 43.0425C49.8176 43.17 49.7023 43.1847 49.6155 43.185C49.182 43.1867 48.6659 43.0992 48.0635 43.131C46.4215 43.2175 45.9895 43.2067 45.6426 43.2712C45.4493 43.3143 44.9117 43.3363 44.2639 43.2829C44.0437 43.2294 44.0437 43.1225 44.0437 43.0124" stroke="#98D2EB" stroke-width="3" stroke-linecap="round"/>
<path d="M7.44676 44.3726C7.23236 44.3513 6.54382 44.3934 5.5285 44.4054C5.19084 44.4093 5.02942 44.0501 4.72757 43.78C4.40219 43.4888 4.01636 43.1873 3.87354 42.7763C3.77789 42.5011 3.71193 42.2364 3.56101 41.977C3.38295 41.671 3.12897 41.3944 2.94566 41.0495C2.934 40.3573 3.02015 40.0562 3.04217 39.764C3.04217 39.6882 3.04217 39.6027 3.04217 39.5146" stroke="#98D2EB" stroke-width="3" stroke-linecap="round"/>
<path d="M2.65356 16.7143C2.65356 16.3911 2.69631 16.1326 2.72903 15.5507C2.77139 14.7969 2.82586 13.6713 2.85857 13.2506C2.88359 12.9288 3.02018 12.6349 3.03152 11.9991C3.03776 11.649 2.82651 11.4683 2.83687 11.3498C2.84236 11.287 2.95411 11.2526 3.04091 11.252C3.44414 11.249 4.11744 11.5311 4.55239 11.6079C4.94258 11.6768 5.28595 11.7695 5.56739 11.8453C5.81983 11.9133 7.11126 11.9211 8.00643 11.8673C8.30698 11.8563 8.56866 11.8777 8.77302 11.9101C8.89188 11.9211 9.04151 11.9211 9.19567 11.9211" stroke="#98D2EB" stroke-width="3" stroke-linecap="round"/>
<path d="M49.9219 8.875H5.54688C4.6642 8.875 3.81768 8.52436 3.19353 7.90022C2.56939 7.27607 2.21875 6.42955 2.21875 5.54688C2.21875 4.6642 2.56939 3.81768 3.19353 3.19353C3.81768 2.56939 4.6642 2.21875 5.54688 2.21875H43.2656C43.5598 2.21875 43.842 2.10187 44.0501 1.89382C44.2581 1.68577 44.375 1.4036 44.375 1.10938C44.375 0.81515 44.2581 0.532977 44.0501 0.324929C43.842 0.11688 43.5598 0 43.2656 0H5.54688C4.07625 0.00163627 2.66634 0.586563 1.62645 1.62645C0.586563 2.66634 0.00163627 4.07625 0 5.54688V41.0469C0.00163627 42.5175 0.586563 43.9274 1.62645 44.9673C2.66634 46.0072 4.07625 46.5921 5.54688 46.5938H49.9219C50.8043 46.5928 51.6502 46.2418 52.2742 45.6179C52.8981 44.994 53.249 44.148 53.25 43.2656V12.2031C53.249 11.3207 52.8981 10.4748 52.2742 9.85085C51.6502 9.22691 50.8043 8.87596 49.9219 8.875ZM51.0312 43.2656C51.031 43.5598 50.914 43.8418 50.706 44.0497C50.498 44.2577 50.216 44.3747 49.9219 44.375H5.54688C4.6645 44.374 3.81854 44.0231 3.1946 43.3992C2.57066 42.7752 2.21971 41.9293 2.21875 41.0469V9.98166C3.17758 10.7046 4.34605 11.095 5.54688 11.0938H49.9219C50.216 11.094 50.498 11.211 50.706 11.419C50.914 11.627 51.031 11.909 51.0312 12.2031V43.2656ZM42.1562 27.7344C42.1562 28.1732 42.0261 28.6022 41.7823 28.967C41.5385 29.3319 41.192 29.6163 40.7866 29.7842C40.3812 29.9522 39.935 29.9961 39.5046 29.9105C39.0742 29.8249 38.6789 29.6136 38.3686 29.3033C38.0583 28.993 37.847 28.5976 37.7614 28.1672C37.6758 27.7368 37.7197 27.2907 37.8876 26.8853C38.0556 26.4799 38.34 26.1333 38.7048 25.8895C39.0697 25.6458 39.4987 25.5156 39.9375 25.5156C40.2289 25.5156 40.5174 25.573 40.7866 25.6845C41.0558 25.796 41.3004 25.9594 41.5064 26.1655C41.7124 26.3715 41.8759 26.6161 41.9874 26.8853C42.0989 27.1545 42.1563 27.443 42.1562 27.7344Z" fill="#111827"/>
</svg>
